<svg width="1400" height="900" viewBox="0 0 1400 900" fill="none" xmlns="http://www.w3.org/2000/svg">
  <rect width="1400" height="900" fill="#F7F0E5"/>
  <rect width="1400" height="36" fill="#B9B9B7"/>
  <text x="700" y="23" text-anchor="middle" fill="#FFFFFF" font-family="Arial, sans-serif" font-size="13" font-weight="700">FloEUR V2</text>
  <rect y="36" width="1400" height="52" fill="#F9F7F2"/>
  <text x="58" y="65" fill="#102E24" font-family="Georgia, serif" font-size="24" font-style="italic">FloEUR</text>
  <g fill="#5F5D59" font-family="Arial, sans-serif" font-size="14">
    <text x="474" y="65">Home</text>
    <text x="540" y="65">Shop</text>
    <text x="605" y="65">Subscriptions</text>
    <text x="704" y="65" fill="#102E24">Weddings</text>
    <text x="792" y="65">About</text>
    <text x="858" y="65">Contact</text>
  </g>
  <line x1="685" y1="76" x2="729" y2="76" stroke="#102E24" stroke-width="1.5"/>
  <text x="1339" y="65" text-anchor="end" fill="#5F5D59" font-family="Arial, sans-serif" font-size="14">Basket</text>

  <rect y="88" width="905" height="410" fill="#385A45"/>
  <rect x="905" y="88" width="495" height="410" fill="#FAF9F6"/>
  <path d="M0 211C53 126 81 65 77 0H0V211Z" fill="#6F8A76" opacity=".35"/>
  <path d="M42 370C89 292 156 245 232 240C165 304 100 358 42 370Z" fill="#6F8A76" opacity=".22"/>
  <path d="M458 0H545C546 95 514 174 458 228V0Z" fill="#6F8A76" opacity=".35"/>
  <path d="M404 254C433 173 480 144 503 156C517 174 489 243 404 254Z" fill="#6F8A76" opacity=".2"/>
  <path d="M20 180C63 185 96 232 98 294C47 273 15 231 20 180Z" fill="#6F8A76" opacity=".28"/>
  <line x1="58" y1="182" x2="102" y2="182" stroke="#D6AC70" stroke-width="1.5"/>
  <text x="58" y="214" fill="#E6C8A8" font-family="Arial, sans-serif" font-size="12" font-weight="700" letter-spacing="3">WEDDINGS &amp; EVENTS</text>
  <text x="58" y="286" fill="#FAF9F6" font-family="Georgia, serif" font-size="50" font-style="italic">Florals for</text>
  <text x="58" y="354" fill="#FAF9F6" font-family="Georgia, serif" font-size="50" font-style="italic">Beautiful Gatherings</text>
  <text x="58" y="430" fill="#D8DDD5" font-family="Arial, sans-serif" font-size="17">From intimate ceremonies to editorial tablescapes, FloEUR designs floral</text>
  <text x="58" y="454" fill="#D8DDD5" font-family="Arial, sans-serif" font-size="17">moments that feel soft, considered, and unforgettable.</text>
  <text x="936" y="486" fill="#A09A90" font-family="Arial, sans-serif" font-size="11">Image placeholder: elegant floral table styling</text>

  <text x="700" y="607" text-anchor="middle" fill="#171717" font-family="Georgia, serif" font-size="40" font-style="italic">Our Services</text>
  <text x="700" y="638" text-anchor="middle" fill="#8A837B" font-family="Arial, sans-serif" font-size="16">Every celebration deserves florals that feel completely its own.</text>
  <rect x="160" y="682" width="510" height="190" rx="8" fill="#FBFAF7" stroke="#DDD8CF"/>
  <rect x="704" y="682" width="510" height="190" rx="8" fill="#FBFAF7" stroke="#DDD8CF"/>
  <g opacity=".32">
    <rect x="184" y="710" width="462" height="92" rx="6" fill="#E8E1D8"/>
    <rect x="728" y="710" width="462" height="92" rx="6" fill="#E8E1D8"/>
  </g>
  <text x="184" y="837" fill="#102E24" font-family="Georgia, serif" font-size="22" font-style="italic">Wedding Florals</text>
  <text x="728" y="837" fill="#102E24" font-family="Georgia, serif" font-size="22" font-style="italic">Event Styling</text>
</svg>
